<?xml version="1.0" encoding="UTF-8"?>
<svg version="1.1" xmlns="http://www.w3.org/2000/svg" width="512" height="512">
<path d="M0 0 C1.04462402 -0.00700928 2.08924805 -0.01401855 3.16552734 -0.02124023 C6.61062381 -0.0388121 10.05489551 -0.02719969 13.5 -0.01367188 C15.8984391 -0.016367 18.29687714 -0.0202496 20.6953125 -0.02526855 C25.71885595 -0.03116254 30.74211467 -0.02260346 35.765625 -0.00390625 C42.20189072 0.01888275 48.63748922 0.00575921 55.07373047 -0.01819611 C60.02544168 -0.03265649 64.97699495 -0.02804688 69.92871094 -0.01768494 C72.30175862 -0.01501834 74.67482068 -0.01828502 77.04785156 -0.02760315 C80.36562028 -0.03777219 83.68231145 -0.02226121 87 0 C88.46832275 -0.01214539 88.46832275 -0.01214539 89.96630859 -0.02453613 C95.62935479 0.04578731 99.1245714 0.56573088 103.5 4.51757812 C108.18597642 9.70582402 108.07254865 14.37188837 108.01757812 21.01757812 C108.02809204 22.58451416 108.02809204 22.58451416 108.03881836 24.18310547 C108.05639022 27.62820193 108.04477782 31.07247364 108.03125 34.51757812 C108.03394513 36.91601723 108.03782772 39.31445526 108.04284668 41.71289062 C108.04874066 46.73643408 108.04018159 51.7596928 108.02148438 56.78320312 C107.99869537 63.21946884 108.01181892 69.65506735 108.03577423 76.09130859 C108.05023461 81.0430198 108.045625 85.99457307 108.03526306 90.94628906 C108.03259647 93.31933674 108.03586314 95.6923988 108.04518127 98.06542969 C108.05535031 101.3831984 108.03983934 104.69988957 108.01757812 108.01757812 C108.02567505 108.99645996 108.03377197 109.9753418 108.04211426 110.98388672 C107.97147918 116.67202832 107.34715534 120.03167617 103.5 124.51757812 C98.60002433 128.7931777 94.80020178 129.06881257 88.6015625 128.90820312 C87.86059326 128.9041748 87.11962402 128.90014648 86.35620117 128.89599609 C83.61221228 128.87521043 80.8685789 128.81936538 78.125 128.76757812 C71.97875 128.68507812 65.8325 128.60257813 59.5 128.51757812 C59.5 144.35757813 59.5 160.19757813 59.5 176.51757812 C63.17253906 176.49663086 66.84507812 176.47568359 70.62890625 176.45410156 C82.81049225 176.38759876 94.99206582 176.34334551 107.17378235 176.31032944 C114.55410075 176.28979069 121.93424597 176.26183865 129.31445312 176.21582031 C135.75446927 176.1756839 142.19435987 176.15008236 148.63449764 176.14122415 C152.03783166 176.13605418 155.44080682 176.12408996 158.84402466 176.0946579 C176.08729018 175.96211557 192.37275347 175.91105162 207.9375 184.33007812 C208.60160889 184.67772217 209.26571777 185.02536621 209.94995117 185.38354492 C215.27360202 188.24240991 220.03040575 191.43132499 224.5 195.51757812 C225.39203125 196.31808594 226.2840625 197.11859375 227.203125 197.94335938 C241.04395577 211.00895235 250.32536766 228.82787575 251.75961304 247.98526001 C251.84357508 251.63145333 251.83831194 255.26526322 251.79296875 258.91210938 C251.78872391 260.22547775 251.78447906 261.53884613 251.78010559 262.89201355 C251.76880515 266.33617187 251.73947158 269.77993342 251.70599365 273.22393799 C251.67496772 276.75731035 251.66153176 280.29074861 251.64648438 283.82421875 C251.61458273 290.72216529 251.56357284 297.61985252 251.5 304.51757812 C252.61971191 304.49663086 253.73942383 304.47568359 254.89306641 304.45410156 C259.06383377 304.38147386 263.23454568 304.33569602 267.40576172 304.29785156 C269.20794081 304.2777878 271.01005521 304.25053 272.81201172 304.21582031 C275.40869136 304.16706984 278.00450729 304.14455731 280.6015625 304.12695312 C281.4017984 304.10630798 282.2020343 304.08566284 283.02651978 304.06439209 C288.32385322 304.06228716 291.367229 304.91142268 295.5 308.51757812 C300.08650929 313.86558963 300.07314877 318.29933566 300.01757812 325.01757812 C300.02809204 326.58451416 300.02809204 326.58451416 300.03881836 328.18310547 C300.05639022 331.62820193 300.04477782 335.07247364 300.03125 338.51757812 C300.03394513 340.91601723 300.03782772 343.31445526 300.04284668 345.71289062 C300.04874066 350.73643408 300.04018159 355.7596928 300.02148438 360.78320312 C299.99869537 367.21946884 300.01181892 373.65506735 300.03577423 380.09130859 C300.05023461 385.0430198 300.045625 389.99457307 300.03526306 394.94628906 C300.03259647 397.31933674 300.03586314 399.6923988 300.04518127 402.06542969 C300.05535031 405.3831984 300.03983934 408.69988957 300.01757812 412.01757812 C300.02567505 412.99645996 300.03377197 413.9753418 300.04211426 414.98388672 C299.97179082 420.64693291 299.45184725 424.14214952 295.5 428.51757812 C290.3117541 433.20355455 285.64568975 433.09012677 279 433.03515625 C277.43306396 433.04567017 277.43306396 433.04567017 275.83447266 433.05639648 C272.38937619 433.07396835 268.94510449 433.06235594 265.5 433.04882812 C263.1015609 433.05152325 260.70312286 433.05540585 258.3046875 433.0604248 C253.28114405 433.06631879 248.25788533 433.05775971 243.234375 433.0390625 C236.79810928 433.0162735 230.36251078 433.02939704 223.92626953 433.05335236 C218.97455832 433.06781274 214.02300505 433.06320313 209.07128906 433.05284119 C206.69824138 433.05017459 204.32517932 433.05344127 201.95214844 433.0627594 C198.63437972 433.07292844 195.31768855 433.05741746 192 433.03515625 C191.02111816 433.04325317 190.04223633 433.0513501 189.03369141 433.05969238 C183.37064521 432.98936894 179.8754286 432.46942537 175.5 428.51757812 C170.81402358 423.32933223 170.92745135 418.66326788 170.98242188 412.01757812 C170.97190796 410.45064209 170.97190796 410.45064209 170.96118164 408.85205078 C170.94360978 405.40695432 170.95522218 401.96268261 170.96875 398.51757812 C170.96605487 396.11913902 170.96217228 393.72070099 170.95715332 391.32226562 C170.95125934 386.29872217 170.95981841 381.27546345 170.97851562 376.25195312 C171.00130463 369.81568741 170.98818108 363.3800889 170.96422577 356.94384766 C170.94976539 351.99213645 170.954375 347.04058318 170.96473694 342.08886719 C170.96740353 339.71581951 170.96413686 337.34275745 170.95481873 334.96972656 C170.94464969 331.65195785 170.96016066 328.33526668 170.98242188 325.01757812 C170.97432495 324.03869629 170.96622803 323.05981445 170.95788574 322.05126953 C171.02852082 316.36312793 171.65284466 313.00348008 175.5 308.51757812 C180.4000876 304.24188088 184.20122708 303.96707241 190.3984375 304.12695312 C191.23339752 304.13261292 192.06835754 304.13827271 192.92861938 304.144104 C195.57801266 304.16637589 198.22602016 304.21655289 200.875 304.26757812 C202.67836579 304.2876551 204.48175292 304.30590377 206.28515625 304.32226562 C210.69063269 304.36621027 215.09508194 304.43517212 219.5 304.51757812 C219.40679466 297.91944098 219.29938326 291.32163881 219.18261719 284.72387695 C219.14460175 282.48467094 219.1097039 280.24540955 219.078125 278.00610352 C218.93124527 248.40626865 218.93124527 248.40626865 204.46484375 223.34960938 C191.6605484 211.3131201 177.05230338 209.4078392 160.19702148 209.31225586 C158.55645027 209.29740646 158.55645027 209.29740646 156.88273621 209.28225708 C153.29554349 209.25086529 149.70833756 209.22597356 146.12109375 209.20117188 C143.62288585 209.18058304 141.12468129 209.15958608 138.6264801 209.13819885 C132.74066876 209.08879024 126.85483722 209.04347398 120.96897799 209.00017649 C112.42487112 208.93703003 103.88083341 208.86552309 95.33678436 208.79505157 C83.39122346 208.69729303 71.4456261 208.60826532 59.5 208.51757812 C59.5 240.19757813 59.5 271.87757813 59.5 304.51757812 C72.04 304.51757812 84.58 304.51757812 97.5 304.51757812 C105.09945543 309.58388174 105.09945543 309.58388174 107.5 314.51757812 C108.05723945 318.02399661 108.04689828 321.47290229 108.01757812 325.01757812 C108.02809204 326.58451416 108.02809204 326.58451416 108.03881836 328.18310547 C108.05639022 331.62820193 108.04477782 335.07247364 108.03125 338.51757812 C108.03394513 340.91601723 108.03782772 343.31445526 108.04284668 345.71289062 C108.04874066 350.73643408 108.04018159 355.7596928 108.02148438 360.78320312 C107.99869537 367.21946884 108.01181892 373.65506735 108.03577423 380.09130859 C108.05023461 385.0430198 108.045625 389.99457307 108.03526306 394.94628906 C108.03259647 397.31933674 108.03586314 399.6923988 108.04518127 402.06542969 C108.05535031 405.3831984 108.03983934 408.69988957 108.01757812 412.01757812 C108.02567505 412.99645996 108.03377197 413.9753418 108.04211426 414.98388672 C107.97179082 420.64693291 107.45184725 424.14214952 103.5 428.51757812 C98.3117541 433.20355455 93.64568975 433.09012677 87 433.03515625 C85.43306396 433.04567017 85.43306396 433.04567017 83.83447266 433.05639648 C80.38937619 433.07396835 76.94510449 433.06235594 73.5 433.04882812 C71.1015609 433.05152325 68.70312286 433.05540585 66.3046875 433.0604248 C61.28114405 433.06631879 56.25788533 433.05775971 51.234375 433.0390625 C44.79810928 433.0162735 38.36251078 433.02939704 31.92626953 433.05335236 C26.97455832 433.06781274 22.02300505 433.06320313 17.07128906 433.05284119 C14.69824138 433.05017459 12.32517932 433.05344127 9.95214844 433.0627594 C6.63437972 433.07292844 3.31768855 433.05741746 0 433.03515625 C-0.97888184 433.04325317 -1.95776367 433.0513501 -2.96630859 433.05969238 C-8.62935479 432.98936894 -12.1245714 432.46942537 -16.5 428.51757812 C-21.18597642 423.32933223 -21.07254865 418.66326788 -21.01757812 412.01757812 C-21.0245874 410.9729541 -21.03159668 409.92833008 -21.03881836 408.85205078 C-21.05639022 405.40695432 -21.04477782 401.96268261 -21.03125 398.51757812 C-21.03394513 396.11913902 -21.03782772 393.72070099 -21.04284668 391.32226562 C-21.04874066 386.29872217 -21.04018159 381.27546345 -21.02148438 376.25195312 C-20.99869537 369.81568741 -21.01181892 363.3800889 -21.03577423 356.94384766 C-21.05023461 351.99213645 -21.045625 347.04058318 -21.03526306 342.08886719 C-21.03259647 339.71581951 -21.03586314 337.34275745 -21.04518127 334.96972656 C-21.05535031 331.65195785 -21.03983934 328.33526668 -21.01757812 325.01757812 C-21.02567505 324.03869629 -21.03377197 323.05981445 -21.04211426 322.05126953 C-20.97179082 316.38822334 -20.45184725 312.89300673 -16.5 308.51757812 C-10.5 304.51757812 -10.5 304.51757812 27.5 304.51757812 C27.5 272.83757812 27.5 241.15757812 27.5 208.51757812 C7.91105881 208.63762772 7.91105881 208.63762772 -11.67773438 208.77539062 C-19.67437487 208.83555449 -27.670987 208.89370281 -35.66772461 208.93945312 C-42.11929924 208.97649432 -48.57074634 209.02290423 -55.02221107 209.07564163 C-57.47597312 209.09408591 -59.92976239 209.10923008 -62.3835659 209.12092209 C-92.78762945 208.81734098 -92.78762945 208.81734098 -118.5 223.51757812 C-129.22293948 236.15532823 -131.73420185 250.38378476 -131.9140625 266.52929688 C-131.93342865 267.6235347 -131.9527948 268.71777252 -131.9727478 269.84516907 C-132.03194571 273.29839582 -132.07868744 276.75165701 -132.125 280.20507812 C-132.16323491 282.56381564 -132.20228974 284.92254002 -132.2421875 287.28125 C-132.33759714 293.02657501 -132.42281467 298.7719809 -132.5 304.51757812 C-131.38028809 304.49663086 -130.26057617 304.47568359 -129.10693359 304.45410156 C-124.93616623 304.38147386 -120.76545432 304.33569602 -116.59423828 304.29785156 C-114.79205919 304.2777878 -112.98994479 304.25053 -111.18798828 304.21582031 C-108.59130864 304.16706984 -105.99549271 304.14455731 -103.3984375 304.12695312 C-102.19808365 304.09598541 -102.19808365 304.09598541 -100.97348022 304.06439209 C-95.67614678 304.06228716 -92.632771 304.91142268 -88.5 308.51757812 C-83.91349071 313.86558963 -83.92685123 318.29933566 -83.98242188 325.01757812 C-83.9754126 326.06220215 -83.96840332 327.10682617 -83.96118164 328.18310547 C-83.94360978 331.62820193 -83.95522218 335.07247364 -83.96875 338.51757812 C-83.96605487 340.91601723 -83.96217228 343.31445526 -83.95715332 345.71289062 C-83.95125934 350.73643408 -83.95981841 355.7596928 -83.97851562 360.78320312 C-84.00130463 367.21946884 -83.98818108 373.65506735 -83.96422577 380.09130859 C-83.94976539 385.0430198 -83.954375 389.99457307 -83.96473694 394.94628906 C-83.96740353 397.31933674 -83.96413686 399.6923988 -83.95481873 402.06542969 C-83.94464969 405.3831984 -83.96016066 408.69988957 -83.98242188 412.01757812 C-83.97432495 412.99645996 -83.96622803 413.9753418 -83.95788574 414.98388672 C-84.02820918 420.64693291 -84.54815275 424.14214952 -88.5 428.51757812 C-93.6882459 433.20355455 -98.35431025 433.09012677 -105 433.03515625 C-106.56693604 433.04567017 -106.56693604 433.04567017 -108.16552734 433.05639648 C-111.61062381 433.07396835 -115.05489551 433.06235594 -118.5 433.04882812 C-120.8984391 433.05152325 -123.29687714 433.05540585 -125.6953125 433.0604248 C-130.71885595 433.06631879 -135.74211467 433.05775971 -140.765625 433.0390625 C-147.20189072 433.0162735 -153.63748922 433.02939704 -160.07373047 433.05335236 C-165.02544168 433.06781274 -169.97699495 433.06320313 -174.92871094 433.05284119 C-177.30175862 433.05017459 -179.67482068 433.05344127 -182.04785156 433.0627594 C-185.36562028 433.07292844 -188.68231145 433.05741746 -192 433.03515625 C-192.97888184 433.04325317 -193.95776367 433.0513501 -194.96630859 433.05969238 C-200.62935479 432.98936894 -204.1245714 432.46942537 -208.5 428.51757812 C-213.18597642 423.32933223 -213.07254865 418.66326788 -213.01757812 412.01757812 C-213.0245874 410.9729541 -213.03159668 409.92833008 -213.03881836 408.85205078 C-213.05639022 405.40695432 -213.04477782 401.96268261 -213.03125 398.51757812 C-213.03394513 396.11913902 -213.03782772 393.72070099 -213.04284668 391.32226562 C-213.04874066 386.29872217 -213.04018159 381.27546345 -213.02148438 376.25195312 C-212.99869537 369.81568741 -213.01181892 363.3800889 -213.03577423 356.94384766 C-213.05023461 351.99213645 -213.045625 347.04058318 -213.03526306 342.08886719 C-213.03259647 339.71581951 -213.03586314 337.34275745 -213.04518127 334.96972656 C-213.05535031 331.65195785 -213.03983934 328.33526668 -213.01757812 325.01757812 C-213.02567505 324.03869629 -213.03377197 323.05981445 -213.04211426 322.05126953 C-212.97148895 316.36391406 -212.34854749 313.00176995 -208.5 308.51757812 C-203.68179315 304.35888778 -199.90752336 303.91781173 -193.8203125 303.90820312 C-193.00754852 303.89166687 -192.19478455 303.87513062 -191.35739136 303.85809326 C-188.77984937 303.80978857 -186.20289656 303.78828219 -183.625 303.76757812 C-181.8697623 303.73940365 -180.11455185 303.70947415 -178.359375 303.67773438 C-174.07296522 303.60403482 -169.78687914 303.5543536 -165.5 303.51757812 C-165.50444122 302.89720673 -165.50888245 302.27683533 -165.51345825 301.63766479 C-165.55809218 295.11507497 -165.58803069 288.59252932 -165.60986328 282.06982422 C-165.61985133 279.64337397 -165.6334464 277.21693553 -165.65087891 274.79052734 C-165.86278246 244.5132495 -162.30002568 220.13849287 -140.5 197.51757812 C-128.1398729 185.59960191 -109.50142127 176.37988825 -92.15324402 176.39732361 C-91.09460144 176.39594894 -90.03595886 176.39457428 -88.94523621 176.39315796 C-87.79437027 176.39675323 -86.64350433 176.40034851 -85.45776367 176.40405273 C-83.62787399 176.40383369 -83.62787399 176.40383369 -81.76101685 176.40361023 C-78.42461808 176.4041867 -75.08828152 176.40919519 -71.75189376 176.41618419 C-68.26186924 176.42244383 -64.77184385 176.42302359 -61.28181458 176.42420959 C-54.67689522 176.42731521 -48.07199247 176.43551823 -41.46708041 176.44555908 C-33.94594904 176.45674411 -26.42481687 176.46223669 -18.90367925 176.46725452 C-3.43577493 176.47770149 12.03210654 176.49603741 27.5 176.51757812 C27.5 160.67757812 27.5 144.83757812 27.5 128.51757812 C15.26404524 128.6755201 15.26404524 128.6755201 3.02880859 128.87792969 C1.48536286 128.88962126 -0.05809529 128.89981198 -1.6015625 128.90820312 C-2.39135498 128.92866699 -3.18114746 128.94913086 -3.99487305 128.97021484 C-9.30633567 128.97354596 -12.35507731 128.13433684 -16.5 124.51757812 C-21.08650929 119.16956662 -21.07314877 114.73582059 -21.01757812 108.01757812 C-21.0245874 106.9729541 -21.03159668 105.92833008 -21.03881836 104.85205078 C-21.05639022 101.40695432 -21.04477782 97.96268261 -21.03125 94.51757812 C-21.03394513 92.11913902 -21.03782772 89.72070099 -21.04284668 87.32226562 C-21.04874066 82.29872217 -21.04018159 77.27546345 -21.02148438 72.25195312 C-20.99869537 65.81568741 -21.01181892 59.3800889 -21.03577423 52.94384766 C-21.05023461 47.99213645 -21.045625 43.04058318 -21.03526306 38.08886719 C-21.03259647 35.71581951 -21.03586314 33.34275745 -21.04518127 30.96972656 C-21.05535031 27.65195785 -21.03983934 24.33526668 -21.01757812 21.01757812 C-21.02567505 20.03869629 -21.03377197 19.05981445 -21.04211426 18.05126953 C-20.97179082 12.38822334 -20.45184725 8.89300673 -16.5 4.51757812 C-11.3117541 -0.1683983 -6.64568975 -0.05497052 0 0 Z M11.5 32.51757812 C11.5 53.63757813 11.5 74.75757813 11.5 96.51757812 C32.62 96.51757812 53.74 96.51757812 75.5 96.51757812 C75.5 75.39757812 75.5 54.27757812 75.5 32.51757812 C54.38 32.51757812 33.26 32.51757812 11.5 32.51757812 Z M-180.5 336.51757812 C-180.5 357.63757813 -180.5 378.75757813 -180.5 400.51757812 C-159.38 400.51757812 -138.26 400.51757812 -116.5 400.51757812 C-116.5 379.39757812 -116.5 358.27757812 -116.5 336.51757812 C-137.62 336.51757812 -158.74 336.51757812 -180.5 336.51757812 Z M11.5 336.51757812 C11.5 357.63757813 11.5 378.75757813 11.5 400.51757812 C32.62 400.51757812 53.74 400.51757812 75.5 400.51757812 C75.5 379.39757812 75.5 358.27757812 75.5 336.51757812 C54.38 336.51757812 33.26 336.51757812 11.5 336.51757812 Z M203.5 336.51757812 C203.5 357.63757813 203.5 378.75757813 203.5 400.51757812 C224.62 400.51757812 245.74 400.51757812 267.5 400.51757812 C267.5 379.39757812 267.5 358.27757812 267.5 336.51757812 C246.38 336.51757812 225.26 336.51757812 203.5 336.51757812 Z " fill="#000000" transform="translate(212.5,39.482421875)"/>
</svg>
